<?xml version="1.0" standalone="no"?><!DOCTYPE svg PUBLIC "-//W3C//DTD SVG 1.1//EN" "http://www.w3.org/Graphics/SVG/1.1/DTD/svg11.dtd"><svg t="1635765957478" class="icon" viewBox="0 0 1024 1024" version="1.1" xmlns="http://www.w3.org/2000/svg" p-id="3131" xmlns:xlink="http://www.w3.org/1999/xlink" width="200" height="200"><defs><style type="text/css"></style></defs><path d="M512 85.333333a341.333333 341.333333 0 1 0 0 682.666667 341.333333 341.333333 0 0 0 0-682.666667zM85.333333 426.666667C85.333333 191.018667 276.352 0 512 0s426.666667 191.018667 426.666667 426.666667-191.018667 426.666667-426.666667 426.666666S85.333333 662.314667 85.333333 426.666667zM213.333333 981.333333a42.666667 42.666667 0 0 1 42.666667-42.666666h512a42.666667 42.666667 0 1 1 0 85.333333H256a42.666667 42.666667 0 0 1-42.666667-42.666667z" fill="#13227a" p-id="3132"></path><path d="M445.738667 772.522667a42.666667 42.666667 0 0 1 19.072 57.216l-85.333334 170.666666a42.666667 42.666667 0 0 1-76.288-38.144l85.333334-170.666666a42.666667 42.666667 0 0 1 57.216-19.072zM578.261333 772.522667a42.666667 42.666667 0 0 0-19.072 57.216l85.333334 170.666666a42.666667 42.666667 0 0 0 76.288-38.144l-85.333334-170.666666a42.666667 42.666667 0 0 0-57.216-19.072zM512 315.733333a110.933333 110.933333 0 1 0 0 221.866667 110.933333 110.933333 0 0 0 0-221.866667zM315.733333 426.666667a196.266667 196.266667 0 1 1 392.533334 0 196.266667 196.266667 0 0 1-392.533334 0zM512 21.333333a42.666667 42.666667 0 0 1 42.666667 42.666667V128a42.666667 42.666667 0 0 1-85.333334 0V64a42.666667 42.666667 0 0 1 42.666667-42.666667z" fill="#13227a" p-id="3133"></path></svg>